<svg xmlns="http://www.w3.org/2000/svg" xmlns:xlink="http://www.w3.org/1999/xlink" viewBox="0 0 336 218.98"><defs><style>.cls-1{fill:#414042;}.cls-2{fill:url(#linear-gradient);}.cls-3{fill:#fff;}</style><linearGradient id="linear-gradient" x1="166.34" y1="211.36" x2="166.34" y2="-48.82" gradientUnits="userSpaceOnUse"><stop offset="0" stop-color="#d7eff1"/><stop offset="1" stop-color="#fff"/></linearGradient></defs><g id="Layer_2" data-name="Layer 2"><g id="Layer_1-2" data-name="Layer 1"><g id="laptop"><rect class="cls-1" x="24.96" width="282.72" height="152.58"/><rect class="cls-2" x="33.28" y="6.94" width="266.13" height="138.71"/><polygon class="cls-1" points="24.96 159.46 307.68 159.46 336 218.98 0 218.98 24.96 159.46"/><path class="cls-3" d="M25,199.3H307.68l-8.27-23.52s-7.09-12-18.13-11-232.8-.06-232.8-.06-10.73-1.38-15.2,7.74S25,199.3,25,199.3Z"/><path class="cls-3" d="M118.8,214.66h95.08l-2.78-7.91s-2.38-4-6.1-3.71-78.29,0-78.29,0-3.61-.47-5.12,2.6A52.58,52.58,0,0,0,118.8,214.66Z"/></g></g></g></svg>